<svg version="1.1" viewBox="0.0 0.0 664.0 670.0" fill="none" stroke="none" stroke-linecap="square" stroke-miterlimit="10" xmlns:xlink="http://www.w3.org/1999/xlink" xmlns="http://www.w3.org/2000/svg"><clipPath id="p.0"><path d="m0 0l664.0 0l0 670.0l-664.0 0l0 -670.0z" clip-rule="nonzero"/></clipPath><g clip-path="url(#p.0)"><path fill="#000000" fill-opacity="0.0" d="m0 0l664.0 0l0 670.0l-664.0 0z" fill-rule="evenodd"/><g filter="url(#shadowFilter-p.1)"><use xlink:href="#p.1" transform="matrix(1.0 0.0 0.0 1.0 0.0 2.0)"/></g><defs><filter id="shadowFilter-p.1" filterUnits="userSpaceOnUse"><feGaussianBlur in="SourceAlpha" stdDeviation="11.0" result="blur"/><feComponentTransfer in="blur" color-interpolation-filters="sRGB"><feFuncR type="linear" slope="0" intercept="0.0"/><feFuncG type="linear" slope="0" intercept="0.91764706"/><feFuncB type="linear" slope="0" intercept="0.91764706"/><feFuncA type="linear" slope="0.85" intercept="0"/></feComponentTransfer></filter></defs><g id="p.1"><path fill="#00eaea" d="m172.12807 335.00208l0 0c0 -88.295975 71.57803 -159.87401 159.87401 -159.87401l0 0c42.401245 0 83.06583 16.843826 113.048004 46.82602c29.982208 29.982193 46.82602 70.646774 46.82602 113.04799l0 0c0 88.29599 -71.57803 159.87402 -159.87402 159.87402l0 0c-88.295975 0 -159.87401 -71.57803 -159.87401 -159.87402zm50.302765 0l0 0c0 60.514557 49.056717 109.57126 109.57124 109.57126c60.514557 0 109.57126 -49.0567 109.57126 -109.57126l0 0c0 -60.514526 -49.0567 -109.57124 -109.57126 -109.57124l0 0c-60.514526 0 -109.57124 49.056717 -109.57124 109.57124z" fill-rule="evenodd"/></g><g filter="url(#shadowFilter-p.2)"><use xlink:href="#p.2" transform="matrix(1.0 0.0 0.0 1.0 0.0 2.0)"/></g><defs><filter id="shadowFilter-p.2" filterUnits="userSpaceOnUse"><feGaussianBlur in="SourceAlpha" stdDeviation="11.0" result="blur"/><feComponentTransfer in="blur" color-interpolation-filters="sRGB"><feFuncR type="linear" slope="0" intercept="0.0"/><feFuncG type="linear" slope="0" intercept="0.91764706"/><feFuncB type="linear" slope="0" intercept="0.91764706"/><feFuncA type="linear" slope="0.85" intercept="0"/></feComponentTransfer></filter></defs><g id="p.2"><path fill="#00eaea" d="m16.880577 334.99722l0 0c0 -13.907135 11.273964 -25.181091 25.181103 -25.181091l81.76378 0l0 0c6.678444 0 13.083351 2.6529846 17.805733 7.375366c4.7223663 4.7223816 7.375366 11.127289 7.375366 17.805725l0 0l0 0c0 13.907135 -11.273956 25.181091 -25.181099 25.181091l-81.76378 0c-13.907139 0 -25.181103 -11.273956 -25.181103 -25.181091z" fill-rule="evenodd"/></g><g filter="url(#shadowFilter-p.3)"><use xlink:href="#p.3" transform="matrix(1.0 0.0 0.0 1.0 0.0 2.0)"/></g><defs><filter id="shadowFilter-p.3" filterUnits="userSpaceOnUse"><feGaussianBlur in="SourceAlpha" stdDeviation="11.0" result="blur"/><feComponentTransfer in="blur" color-interpolation-filters="sRGB"><feFuncR type="linear" slope="0" intercept="0.0"/><feFuncG type="linear" slope="0" intercept="0.91764706"/><feFuncB type="linear" slope="0" intercept="0.91764706"/><feFuncA type="linear" slope="0.85" intercept="0"/></feComponentTransfer></filter></defs><g id="p.3"><path fill="#00eaea" d="m514.9941 334.99722l0 0c0 -13.907135 11.273987 -25.181091 25.181091 -25.181091l81.763794 0l0 0c6.678467 0 13.083374 2.6529846 17.805725 7.375366c4.722412 4.7223816 7.375366 11.127289 7.375366 17.805725l0 0l0 0c0 13.907135 -11.273926 25.181091 -25.181091 25.181091l-81.763794 0c-13.9071045 0 -25.181091 -11.273956 -25.181091 -25.181091z" fill-rule="evenodd"/></g><g filter="url(#shadowFilter-p.4)"><use xlink:href="#p.4" transform="matrix(1.0 0.0 0.0 1.0 0.0 2.0)"/></g><defs><filter id="shadowFilter-p.4" filterUnits="userSpaceOnUse"><feGaussianBlur in="SourceAlpha" stdDeviation="11.0" result="blur"/><feComponentTransfer in="blur" color-interpolation-filters="sRGB"><feFuncR type="linear" slope="0" intercept="0.0"/><feFuncG type="linear" slope="0" intercept="0.91764706"/><feFuncB type="linear" slope="0" intercept="0.91764706"/><feFuncA type="linear" slope="0.85" intercept="0"/></feComponentTransfer></filter></defs><g id="p.4"><path fill="#00eaea" d="m339.37137 650.11945l0 0c-13.907135 0 -25.181091 -11.273987 -25.181091 -25.181152l0 -81.76373l0 0c0 -6.678467 2.6530151 -13.083374 7.375366 -17.805725c4.7223816 -4.722412 11.127289 -7.3754272 17.805725 -7.3754272l0 0l0 0c13.907135 0 25.181122 11.273987 25.181122 25.181152l0 81.76373c0 13.907166 -11.273987 25.181152 -25.181122 25.181152z" fill-rule="evenodd"/></g><g filter="url(#shadowFilter-p.5)"><use xlink:href="#p.5" transform="matrix(1.0 0.0 0.0 1.0 0.0 2.0)"/></g><defs><filter id="shadowFilter-p.5" filterUnits="userSpaceOnUse"><feGaussianBlur in="SourceAlpha" stdDeviation="11.0" result="blur"/><feComponentTransfer in="blur" color-interpolation-filters="sRGB"><feFuncR type="linear" slope="0" intercept="0.0"/><feFuncG type="linear" slope="0" intercept="0.91764706"/><feFuncB type="linear" slope="0" intercept="0.91764706"/><feFuncA type="linear" slope="0.85" intercept="0"/></feComponentTransfer></filter></defs><g id="p.5"><path fill="#00eaea" d="m339.37137 152.0059l0 0c-13.907135 0 -25.181091 -11.273956 -25.181091 -25.181099l0 -81.76378l0 0c0 -6.678444 2.6530151 -13.083357 7.375366 -17.805729c4.7223816 -4.722374 11.127289 -7.375374 17.805725 -7.375374l0 0l0 0c13.907135 0 25.181122 11.273962 25.181122 25.181103l0 81.76378c0 13.907143 -11.273987 25.181099 -25.181122 25.181099z" fill-rule="evenodd"/></g><g filter="url(#shadowFilter-p.6)"><use xlink:href="#p.6" transform="matrix(1.0 0.0 0.0 1.0 0.0 2.0)"/></g><defs><filter id="shadowFilter-p.6" filterUnits="userSpaceOnUse"><feGaussianBlur in="SourceAlpha" stdDeviation="11.0" result="blur"/><feComponentTransfer in="blur" color-interpolation-filters="sRGB"><feFuncR type="linear" slope="0" intercept="0.0"/><feFuncG type="linear" slope="0" intercept="0.91764706"/><feFuncB type="linear" slope="0" intercept="0.91764706"/><feFuncA type="linear" slope="0.85" intercept="0"/></feComponentTransfer></filter></defs><g id="p.6"><path fill="#00eaea" d="m109.18025 557.8264l0 0c-9.836761 -9.836731 -9.836761 -25.785278 0 -35.62207l57.795273 -57.795258l0 0c4.7237854 -4.7237854 11.1306 -7.3775635 17.81102 -7.3775635c6.680435 0 13.08725 2.653778 17.811035 7.3775635l0 0l0 0c9.836746 9.836761 9.836746 25.785278 0 35.62204l-57.795288 57.795288c-9.836746 9.836731 -25.785286 9.836731 -35.62204 0z" fill-rule="evenodd"/></g><g filter="url(#shadowFilter-p.7)"><use xlink:href="#p.7" transform="matrix(1.0 0.0 0.0 1.0 0.0 2.0)"/></g><defs><filter id="shadowFilter-p.7" filterUnits="userSpaceOnUse"><feGaussianBlur in="SourceAlpha" stdDeviation="11.0" result="blur"/><feComponentTransfer in="blur" color-interpolation-filters="sRGB"><feFuncR type="linear" slope="0" intercept="0.0"/><feFuncG type="linear" slope="0" intercept="0.91764706"/><feFuncB type="linear" slope="0" intercept="0.91764706"/><feFuncA type="linear" slope="0.85" intercept="0"/></feComponentTransfer></filter></defs><g id="p.7"><path fill="#00eaea" d="m461.3997 205.60696l0 0c-9.836761 -9.836746 -9.836761 -25.785294 0 -35.62204l57.795258 -57.79528l0 0c4.723816 -4.723778 11.130615 -7.3775635 17.811035 -7.3775635c6.68042 0 13.08728 2.6537857 17.811035 7.3775635l0 0l0 0c9.836731 9.836761 9.836731 25.785286 0 35.622047l-57.795288 57.795273c-9.836731 9.836761 -25.785278 9.836761 -35.62204 0z" fill-rule="evenodd"/></g><g filter="url(#shadowFilter-p.8)"><use xlink:href="#p.8" transform="matrix(1.0 0.0 0.0 1.0 0.0 2.0)"/></g><defs><filter id="shadowFilter-p.8" filterUnits="userSpaceOnUse"><feGaussianBlur in="SourceAlpha" stdDeviation="11.0" result="blur"/><feComponentTransfer in="blur" color-interpolation-filters="sRGB"><feFuncR type="linear" slope="0" intercept="0.0"/><feFuncG type="linear" slope="0" intercept="0.91764706"/><feFuncB type="linear" slope="0" intercept="0.91764706"/><feFuncA type="linear" slope="0.85" intercept="0"/></feComponentTransfer></filter></defs><g id="p.8"><path fill="#00eaea" d="m560.0407 552.6054l0 0c-9.836731 9.836792 -25.785278 9.836792 -35.62201 0l-57.795288 -57.795258l0 0c-4.7237854 -4.7237854 -7.3775635 -11.130585 -7.3775635 -17.811005c0 -6.6804504 2.653778 -13.08725 7.3775635 -17.811035l0 0l0 0c9.836761 -9.836761 25.785278 -9.836761 35.62204 0l57.795258 57.795288c9.836792 9.836731 9.836792 25.785278 0 35.62201z" fill-rule="evenodd"/></g><g filter="url(#shadowFilter-p.9)"><use xlink:href="#p.9" transform="matrix(1.0 0.0 0.0 1.0 0.0 2.0)"/></g><defs><filter id="shadowFilter-p.9" filterUnits="userSpaceOnUse"><feGaussianBlur in="SourceAlpha" stdDeviation="11.0" result="blur"/><feComponentTransfer in="blur" color-interpolation-filters="sRGB"><feFuncR type="linear" slope="0" intercept="0.0"/><feFuncG type="linear" slope="0" intercept="0.91764706"/><feFuncB type="linear" slope="0" intercept="0.91764706"/><feFuncA type="linear" slope="0.85" intercept="0"/></feComponentTransfer></filter></defs><g id="p.9"><path fill="#00eaea" d="m207.82129 200.38599l0 0c-9.836761 9.836761 -25.785294 9.836761 -35.622055 0l-57.795273 -57.795273l0 0c-4.723778 -4.72377 -7.3775635 -11.1306 -7.3775635 -17.811028c0 -6.6804276 2.6537857 -13.087242 7.3775635 -17.81102l0 0l0 0c9.836761 -9.836754 25.785294 -9.836754 35.622055 0l57.795273 57.79528c9.836746 9.836746 9.836746 25.785278 0 35.62204z" fill-rule="evenodd"/></g></g></svg>